<svg xmlns="http://www.w3.org/2000/svg" version="1.1" xmlns:xlink="http://www.w3.org/1999/xlink" xmlns:svgjs="http://svgjs.dev/svgjs" width="2000" height="1500" viewBox="0 0 2000 1500"><rect width="2000" height="1500" fill="#dedede"></rect><g transform="matrix(0.75,0,0,0.75,249.090909090909,315.01810272583907)"><svg viewBox="0 0 396 230" data-background-color="#dedede" preserveAspectRatio="xMidYMid meet" height="1161" width="2000" xmlns="http://www.w3.org/2000/svg" xmlns:xlink="http://www.w3.org/1999/xlink"><g id="tight-bounds" transform="matrix(1,0,0,1,0.2400000000000091,-0.10383419689118512)"><svg viewBox="0 0 395.52 230.20766839378237" height="230.20766839378237" width="395.52"><g><svg viewBox="0 0 395.52 230.20766839378237" height="230.20766839378237" width="395.52"><g><svg viewBox="0 0 395.52 230.20766839378237" height="230.20766839378237" width="395.52"><g id="textblocktransform"><svg viewBox="0 0 395.52 230.20766839378237" height="230.20766839378237" width="395.52" id="textblock"><g><svg viewBox="0 0 395.52 230.20766839378237" height="230.20766839378237" width="395.52"><g transform="matrix(1,0,0,1,0,0)"><svg width="395.52" viewBox="1.75 -33.70000076293945 57.900001525878906 33.70000076293945" height="230.20766839378237" data-palette-color="#374151"><path d="M10.9-14.2L10.9-14.2 10.25-12.3 22.2-12.3 21.55-14.25 16.3-30.45Q15.7-28.3 10.9-14.2ZM9.1-8.85L6.1 0 1.75 0 13.5-33.7 19.1-33.7 30.65 0 26.3 0 23.35-8.85 9.1-8.85ZM46.1-16.65L59.65 0 54.4 0 41.1-16.65 53.95-33.7 58.95-33.7 46.1-16.65ZM40.3-33.7L40.3 0 36.25 0 36.25-33.7 40.3-33.7Z" opacity="1" transform="matrix(1,0,0,1,0,0)" fill="#374151" class="undefined-text-0" data-fill-palette-color="primary" id="text-0"></path></svg></g></svg></g></svg></g></svg></g></svg></g><defs></defs></svg><rect width="395.52" height="230.20766839378237" fill="none" stroke="none" visibility="hidden"></rect></g></svg></g></svg>