<?xml version="1.0" standalone="no"?>
<!DOCTYPE svg PUBLIC "-//W3C//DTD SVG 20010904//EN"
 "http://www.w3.org/TR/2001/REC-SVG-20010904/DTD/svg10.dtd">
<svg version="1.0" xmlns="http://www.w3.org/2000/svg"
 width="2000.000000pt" height="2000.000000pt" viewBox="0 0 2000.000000 2000.000000"
 preserveAspectRatio="xMidYMid meet">
<metadata>
Created by potrace 1.14, written by Peter Selinger 2001-2017
</metadata>
<g transform="translate(0.000000,2000.000000) scale(0.100000,-0.100000)"
fill="#000000" stroke="none">
<path d="M5512 14273 c-30 -90 -2968 -8513 -2996 -8591 l-15 -42 566 2 566 3
387 1140 386 1140 1841 3 1841 2 382 -1145 382 -1145 564 0 563 0 -95 278
c-52 152 -724 2113 -1493 4357 l-1398 4080 -726 3 -725 2 -30 -87z m1427
-2838 c363 -1122 703 -2168 756 -2325 52 -156 95 -286 95 -287 0 -2 -693 -3
-1540 -3 -847 0 -1540 4 -1540 8 0 4 15 53 34 108 663 1937 1393 4125 1492
4467 15 54 31 92 35 85 3 -7 304 -931 668 -2053z"/>
<path d="M11427 14353 c-4 -3 -7 -1965 -7 -4360 l0 -4353 530 0 530 0 -2 4358
-3 4357 -521 3 c-286 1 -524 -1 -527 -5z"/>
<path d="M14346 12158 c-913 -1212 -1659 -2207 -1659 -2213 0 -6 771 -977
1714 -2158 l1714 -2146 682 -1 682 0 -1749 2150 c-963 1182 -1750 2152 -1750
2155 0 2 745 993 1655 2201 910 1207 1655 2200 1655 2205 0 5 -259 9 -642 9
l-643 0 -1659 -2202z"/>
</g>
</svg>
